<?xml version="1.0" encoding="UTF-8"?>
<svg width="400px" height="400px" viewBox="0 0 400 400" version="1.1" xmlns="http://www.w3.org/2000/svg" xmlns:xlink="http://www.w3.org/1999/xlink">
    <!-- Generator: Sketch 57.1 (83088) - https://sketch.com -->
    <title>logo</title>
    <desc>Created with Sketch.</desc>
    <g id="logo" stroke="none" stroke-width="1" fill="none" fill-rule="evenodd">
        <path d="M204.721285,2.3527452 L204.848798,2.54872564 L214.948739,19.0404798 L219.84871,19.5402299 L233.348631,5.04747626 C235.999524,2.20162646 241.34951,3.11336894 242.868187,6.74213967 L242.948575,6.94652674 L249.848534,25.4372814 L254.648506,26.8365817 L270.648412,15.3423288 C273.890498,13.083809 278.966492,15.1666088 279.712568,18.9368532 L279.748359,19.1404298 L282.94834,38.6306847 L287.348314,40.9295352 L305.348209,32.7336332 C308.984394,31.1620052 313.586388,34.1274369 313.554166,38.0249131 L313.54816,38.2308846 L312.848165,58.0209895 L316.648142,61.1194403 L335.84803,56.6216892 C339.779041,55.7376484 343.613472,59.5837337 342.890283,63.4165041 L342.847989,63.6181909 L338.348015,82.8085957 L341.447997,86.6066967 L361.247881,85.9070465 C365.277167,85.8088197 368.340645,90.2476526 366.831518,93.9108913 L366.747848,94.1029485 L358.547896,112.093953 L360.847883,116.491754 L380.347768,119.690155 C384.276317,120.377311 386.372127,125.306607 384.266765,128.607224 L384.147746,128.785607 L372.647814,144.777611 L374.047805,149.575212 L392.547697,156.471764 C396.180403,157.845623 397.306809,163.266119 394.601908,166.016885 L394.447686,166.166917 L380.04777,179.66017 L380.547767,184.557721 L397.347669,194.952524 C400.779021,197.010318 400.750186,202.430523 398.015018,204.620176 L397.847666,204.747626 L381.047764,215.142429 L380.547767,220.03998 L394.947683,233.533233 C397.89312,236.182818 396.886316,241.530161 393.252279,243.048088 L393.047694,243.128436 L374.547803,250.024988 L373.147811,254.822589 L384.647743,270.814593 C386.907379,274.055078 384.920072,279.128564 381.056523,279.874272 L380.847766,279.910045 L361.34788,283.108446 L359.047893,287.506247 L367.247845,305.497251 C368.82025,309.131641 365.853353,313.731363 361.953951,313.699156 L361.747878,313.693153 L341.947994,312.993503 L338.848012,316.791604 L343.347986,336.081959 C344.232463,339.912802 340.384477,343.743645 336.549813,343.020785 L336.348027,342.978511 L317.148139,338.48076 L313.348162,341.57921 L314.048157,361.369315 C314.146433,365.298385 309.608826,368.45519 306.035362,366.950107 L305.848206,366.866567 L287.848311,358.670665 L283.448337,360.969515 L280.248356,380.45977 C279.56086,384.386378 274.629129,386.481154 271.32688,384.376831 L271.148409,384.257871 L255.148503,372.763618 L250.348531,374.162919 L243.448572,392.653673 C242.074034,396.284585 236.747256,397.410435 233.998635,394.70687 L233.848628,394.552724 L220.348707,380.15992 L215.448736,380.65967 L205.048797,397.451274 C202.989986,400.782942 197.567103,400.848269 195.376367,397.647255 L195.248854,397.451274 L184.848915,380.65967 L179.948944,380.15992 L166.449023,394.552724 C163.79813,397.496706 158.448145,396.394051 156.929468,392.852902 L156.84908,392.653673 L149.94912,374.162919 L145.149148,372.763618 L129.149242,384.257871 C125.907156,386.516391 120.831162,384.530065 120.085087,380.668424 L120.049296,380.45977 L116.849314,360.969515 L112.44934,358.670665 L94.4494459,366.866567 C90.8132603,368.438195 86.2112659,365.472763 86.2434887,361.575287 L86.249494,361.369315 L86.9494899,341.57921 L83.1495122,338.48076 L63.9496248,342.978511 C60.115749,343.96107 56.1852349,340.1141 56.908102,336.280226 L56.9496659,336.081959 L61.4496395,316.791604 L58.3496577,312.993503 L38.5497738,313.693153 C34.6187624,313.79138 31.4603981,309.256014 32.9662243,305.684315 L33.0498061,305.497251 L41.249758,287.506247 L38.9497715,283.108446 L19.4498859,279.910045 C15.5200844,279.320866 13.4241902,274.293893 15.5329055,270.989909 L15.6499082,270.814593 L27.1498407,254.822589 L25.7498489,250.024988 L7.24995746,243.128436 C3.6172515,241.754577 2.49084489,236.430429 5.19574623,233.683167 L5.34996861,233.533233 L19.8498835,220.03998 L19.3498865,215.142429 L2.54998504,204.747626 C-0.783328738,202.689832 -0.848687831,197.269627 2.35390776,195.079974 L2.54998504,194.952524 L19.0498882,184.857571 L19.5498853,179.96002 L5.14996978,166.466767 C2.30271376,163.71905 3.31130289,158.369922 6.85072855,156.851963 L7.04995864,156.771614 L25.5498501,149.875062 L26.9498419,145.077461 L15.4499094,129.085457 C13.1902735,125.844972 15.177581,120.771486 19.0411299,120.025778 L19.2498871,119.990005 L38.7497727,116.791604 L41.0497592,112.393803 L32.8498073,94.4027986 C31.2774027,90.7684089 34.2442997,86.2652205 38.1437018,86.2058874 L38.349775,86.2068966 L58.1496588,86.9065467 L61.2496406,83.1084458 L56.749667,63.918041 C55.8651895,60.0871978 59.7131752,56.1598214 63.5478395,56.8793528 L63.749626,56.9215392 L82.9495133,61.4192904 L86.749491,58.3208396 L86.0494951,38.5307346 C85.9512199,34.6016647 90.488827,31.4448602 94.0622905,32.9499428 L94.249447,33.0334833 L112.249341,41.2293853 L116.649316,38.9305347 L119.849297,19.4402799 C120.438767,15.5124192 125.468224,13.4175602 128.773841,15.525234 L128.949243,15.6421789 L144.94915,27.1364318 L149.749121,25.7371314 L156.649081,7.24637681 C158.023618,3.61546499 163.350397,2.4896147 166.099017,5.19318012 L166.249025,5.34732634 L179.748945,19.84008 L184.648917,19.3403298 L195.048856,2.54872564 C197.107667,-0.782941862 202.53055,-0.848268676 204.721285,2.3527452 Z M224.848681,56.2218891 L207.048785,74.0129935 C203.148808,77.9110445 196.848845,77.9110445 192.948868,74.0129935 L192.948868,74.0129935 L175.148972,56.2218891 C129.849238,63.918041 91.6494623,92.6036982 70.8495843,131.884058 L70.8495843,131.884058 L82.2495174,154.272864 C84.7495028,159.170415 82.7495145,165.167416 77.8495433,167.666167 L77.8495433,167.666167 L55.4496747,179.06047 C54.4496805,185.857071 53.9496835,192.753623 53.9496835,199.850075 C53.9496835,239.430285 69.7495908,275.312344 95.6494388,301.5992 L95.6494388,301.5992 L120.449293,297.701149 C125.849262,296.801599 130.949232,300.49975 131.849226,305.997001 L131.849226,305.997001 L135.749204,330.884558 C155.14909,340.47976 177.048961,345.877061 200.148826,345.877061 C223.24869,345.877061 245.148562,340.47976 264.548448,330.884558 L264.548448,330.884558 L268.448425,305.997001 C269.24842,300.5997 274.34839,296.801599 279.848358,297.701149 L279.848358,297.701149 L304.648213,301.5992 C330.148063,275.312344 345.94797,239.430285 346.04797,199.850075 C346.04797,192.753623 345.547973,185.857071 344.547979,179.06047 L344.547979,179.06047 L322.14811,167.666167 C317.148139,165.167416 315.24815,159.170415 317.748136,154.272864 L317.748136,154.272864 L329.148069,131.884058 C308.348191,92.6036982 270.148415,64.017991 224.848681,56.2218891 L224.848681,56.2218891 Z M100.249412,316.491754 C96.3494347,321.889055 97.5494277,329.385307 102.949396,333.283358 C108.349364,337.181409 115.84932,335.982009 119.749297,330.584708 C123.649275,325.287356 122.449282,317.691154 117.049313,313.793103 C111.649345,309.895052 104.149389,311.094453 100.249412,316.491754 Z M282.748341,313.793103 C277.348373,317.691154 276.14838,325.187406 280.048357,330.584708 C283.948334,335.982009 291.44829,337.181409 296.848258,333.283358 C302.248227,329.385307 303.44822,321.889055 299.548243,316.491754 C295.648265,311.194403 288.148309,309.995002 282.748341,313.793103 Z M43.0497474,148.875562 C40.9497597,155.172414 44.4497392,161.969015 50.7497023,163.968016 C57.0496653,166.066967 63.749626,162.568716 65.8496137,156.271864 C67.9496013,149.975012 64.4496219,143.278361 58.1496588,141.17941 C51.8496958,139.08046 45.1497351,142.578711 43.0497474,148.875562 Z M341.747995,141.17941 C335.448032,143.278361 332.048052,149.975012 334.04804,156.271864 C336.048028,162.568716 342.847989,165.967016 349.147952,163.968016 C355.447915,161.969015 358.847895,155.172414 356.847906,148.875562 C354.847918,142.578711 348.047958,139.18041 341.747995,141.17941 Z M199.948827,34.9325337 C193.348866,34.9325337 187.948897,40.3298351 187.948897,46.9265367 C187.948897,53.5232384 193.348866,58.9205397 199.948827,58.9205397 C206.548788,58.9205397 211.948756,53.5232384 211.948756,46.9265367 C211.948756,40.3298351 206.548788,34.9325337 199.948827,34.9325337 Z" id="Cog" fill="#000000" fill-rule="nonzero"></path>
        <g id="cargo:-key=val" transform="translate(89.084961, 161.000000)" fill-rule="nonzero">
            <path d="M13.2626953,25.5498047 C13.983402,25.5498047 14.6689421,25.444337 15.3193359,25.2333984 C15.9697298,25.0224599 16.5410132,24.7236347 17.0332031,24.3369141 C17.5253931,23.9501934 17.9077135,23.4843777 18.1801758,22.9394531 C18.4526381,22.3945285 18.5712892,21.7880893 18.5361328,21.1201172 L25.4443359,21.1201172 C25.4794924,22.5966871 25.1762727,23.9677671 24.534668,25.2333984 C23.8930632,26.4990298 23.0185602,27.5888626 21.9111328,28.5029297 C20.8037054,29.4169968 19.5161206,30.1332982 18.0483398,30.6518555 C16.5805591,31.1704127 15.029305,31.4296875 13.3945312,31.4296875 C11.1796764,31.4296875 9.23731304,31.0561561 7.56738281,30.309082 C5.89745259,29.562008 4.50440011,28.5380924 3.38818359,27.2373047 C2.27196708,25.9365169 1.42822551,24.4116298 0.856933594,22.6625977 C0.285641675,20.9135655 0,19.0371194 0,17.0332031 L0,16.2421875 C0,14.2382712 0.281247187,12.3618252 0.84375,10.612793 C1.40625281,8.86376079 2.24999437,7.33887369 3.375,6.03808594 C4.5,4.73729818 5.8930581,3.70898815 7.55419922,2.953125 C9.21534034,2.19726185 11.1445203,1.81933594 13.3417969,1.81933594 C15.0996182,1.81933594 16.7255785,2.08300518 18.2197266,2.61035156 C19.7138747,3.13769795 21.0014594,3.8803663 22.0825195,4.83837891 C23.1635796,5.79639151 24.0029267,6.95653616 24.6005859,8.31884766 C25.1982452,9.68115916 25.4794924,11.2060462 25.4443359,12.8935547 L18.5361328,12.8935547 C18.5712892,12.1904262 18.4658215,11.5224641 18.2197266,10.8896484 C17.9736316,10.2568328 17.6132836,9.71191635 17.1386719,9.25488281 C16.6640601,8.79784928 16.0927768,8.43310683 15.4248047,8.16064453 C14.7568326,7.88818223 14.0273477,7.75195312 13.2363281,7.75195312 C12.0761661,7.75195312 11.1181678,7.98925544 10.3623047,8.46386719 C9.60644153,8.93847894 9.00439677,9.57128511 8.55615234,10.3623047 C8.10790792,11.1533243 7.79150483,12.0585887 7.60693359,13.078125 C7.42236236,14.0976613 7.33007812,15.1523383 7.33007812,16.2421875 L7.33007812,17.0332031 C7.33007812,18.1406305 7.41796787,19.208491 7.59375,20.2368164 C7.76953213,21.2651419 8.08154073,22.1704062 8.52978516,22.9526367 C8.97802958,23.7348672 9.58446883,24.3632789 10.3491211,24.8378906 C11.1137734,25.3125024 12.084955,25.5498047 13.2626953,25.5498047 Z M50.8623047,30.8759766 C50.6865226,30.5244123 50.53711,30.1201195 50.4140625,29.6630859 C50.291015,29.2060524 50.1855473,28.7226588 50.0976562,28.2128906 C49.6933574,28.6523459 49.2275417,29.0654278 48.7001953,29.4521484 C48.1728489,29.8388691 47.5883821,30.1772446 46.9467773,30.4672852 C46.3051726,30.7573257 45.5976601,30.985839 44.8242188,31.152832 C44.0507774,31.3198251 43.2158248,31.4033203 42.3193359,31.4033203 C40.8603443,31.4033203 39.5200256,31.1923849 38.2983398,30.7705078 C37.076654,30.3486307 36.0263716,29.7597694 35.1474609,29.0039062 C34.2685503,28.2480431 33.5830103,27.3471732 33.0908203,26.3012695 C32.5986304,25.2553659 32.3525391,24.1171937 32.3525391,22.8867188 C32.3525391,19.8808443 33.4731333,17.5561606 35.7143555,15.9125977 C37.9555776,14.2690348 41.2997825,13.4472656 45.7470703,13.4472656 L49.8339844,13.4472656 L49.8339844,11.7597656 C49.8339844,10.388665 49.3857467,9.30322666 48.4892578,8.50341797 C47.592769,7.70360928 46.3007897,7.30371094 44.6132812,7.30371094 C43.1191332,7.30371094 42.0293003,7.62450851 41.34375,8.26611328 C40.6581997,8.90771805 40.3154297,9.76464308 40.3154297,10.8369141 L32.9853516,10.8369141 C32.9853516,9.62401737 33.2534153,8.4726617 33.7895508,7.3828125 C34.3256863,6.2929633 35.107905,5.33496507 36.1362305,4.50878906 C37.1645559,3.68261306 38.4213793,3.02783445 39.9067383,2.54443359 C41.3920973,2.06103274 43.0927639,1.81933594 45.0087891,1.81933594 C46.7314539,1.81933594 48.3354418,2.03027133 49.8208008,2.45214844 C51.3061598,2.87402555 52.5937446,3.49804274 53.6835938,4.32421875 C54.7734429,5.15039476 55.6259735,6.19188825 56.2412109,7.44873047 C56.8564484,8.70557269 57.1640625,10.160148 57.1640625,11.8125 L57.1640625,24.046875 C57.1640625,25.5761795 57.2607412,26.8417919 57.4541016,27.84375 C57.6474619,28.8457081 57.9287091,29.7070276 58.2978516,30.4277344 L58.2978516,30.8759766 L50.8623047,30.8759766 Z M43.875,25.734375 C44.6132849,25.734375 45.298825,25.6464853 45.9316406,25.4707031 C46.5644563,25.294921 47.1357396,25.0664077 47.6455078,24.7851562 C48.155276,24.5039048 48.5947247,24.1831073 48.9638672,23.8227539 C49.3330097,23.4624005 49.6230458,23.0976581 49.8339844,22.7285156 L49.8339844,17.8242188 L46.0898438,17.8242188 C44.9472599,17.8242188 43.9716837,17.9340809 43.1630859,18.1538086 C42.3544881,18.3735363 41.695315,18.6811504 41.1855469,19.0766602 C40.6757787,19.4721699 40.2978528,19.9467746 40.0517578,20.5004883 C39.8056628,21.054202 39.6826172,21.6562467 39.6826172,22.3066406 C39.6826172,23.2910205 40.0297817,24.1083952 40.7241211,24.7587891 C41.4184605,25.4091829 42.468743,25.734375 43.875,25.734375 Z M85.9306641,1.81933594 C87.0380915,1.81933594 88.062007,1.89404222 89.0024414,2.04345703 C89.9428758,2.19287184 90.7031221,2.35546787 91.2832031,2.53125 L90.2021484,9.83496094 C89.2353467,9.60644417 88.2465871,9.43505917 87.2358398,9.32080078 C86.2250926,9.2065424 85.2626999,9.14941406 84.3486328,9.14941406 C82.2919819,9.14941406 80.6440492,9.54491792 79.4047852,10.3359375 C78.1655211,11.1269571 77.2382843,12.2607348 76.6230469,13.7373047 L76.6230469,30.8759766 L69.2929688,30.8759766 L69.2929688,2.34667969 L76.1220703,2.34667969 L76.4648438,7.01367188 C77.6250058,5.39647629 79.0136638,4.12646946 80.6308594,3.20361328 C82.248055,2.2807571 84.0146389,1.81933594 85.9306641,1.81933594 Z M97.1103516,16.4003906 C97.1103516,14.2382704 97.3784153,12.2607512 97.9145508,10.4677734 C98.4506863,8.67479572 99.2197216,7.13672517 100.22168,5.85351562 C101.223638,4.57030608 102.436516,3.57715195 103.860352,2.87402344 C105.284187,2.17089492 106.892569,1.81933594 108.685547,1.81933594 C110.355477,1.81933594 111.78808,2.10058313 112.983398,2.66308594 C114.178717,3.22558875 115.198238,4.02538544 116.041992,5.0625 L116.332031,2.34667969 L123.00293,2.34667969 L123.00293,29.953125 C123.00293,31.8867284 122.673343,33.6093674 122.01416,35.1210938 C121.354977,36.6328201 120.432135,37.9072214 119.245605,38.9443359 C118.059076,39.9814505 116.635262,40.7680637 114.974121,41.3041992 C113.31298,41.8403347 111.480479,42.1083984 109.476562,42.1083984 C108.61523,42.1083984 107.692388,42.0205087 106.708008,41.8447266 C105.723628,41.6689444 104.748052,41.3964862 103.78125,41.0273438 C102.814448,40.6582013 101.900395,40.1879911 101.039062,39.6166992 C100.17773,39.0454073 99.4394562,38.3642618 98.8242188,37.5732422 L102.120117,33.1171875 C103.051762,34.1718803 104.106439,34.9760715 105.28418,35.5297852 C106.46192,36.0834989 107.736321,36.3603516 109.107422,36.3603516 C111.164073,36.3603516 112.768061,35.8110406 113.919434,34.7124023 C115.070807,33.613764 115.646484,32.053721 115.646484,30.0322266 L115.646484,28.3974609 C114.785152,29.3466844 113.778814,30.0849583 112.627441,30.6123047 C111.476068,31.1396511 110.144539,31.4033203 108.632812,31.4033203 C106.857413,31.4033203 105.262214,31.0385779 103.847168,30.309082 C102.432122,29.5795862 101.223638,28.5732486 100.22168,27.2900391 C99.2197216,26.0068295 98.4506863,24.4819424 97.9145508,22.715332 C97.3784153,20.9487216 97.1103516,19.0283307 97.1103516,16.9541016 L97.1103516,16.4003906 Z M104.466797,16.9541016 C104.466797,18.14942 104.585448,19.2612253 104.822754,20.2895508 C105.06006,21.3178762 105.424802,22.2143516 105.916992,22.9790039 C106.409182,23.7436562 107.033199,24.3457009 107.789062,24.7851562 C108.544926,25.2246116 109.441401,25.4443359 110.478516,25.4443359 C111.761725,25.4443359 112.820797,25.1982446 113.655762,24.7060547 C114.490727,24.2138647 115.154294,23.5283247 115.646484,22.6494141 L115.646484,10.5732422 C115.154294,9.67675333 114.490727,8.98681882 113.655762,8.50341797 C112.820797,8.02001711 111.779303,7.77832031 110.53125,7.77832031 C109.494135,7.77832031 108.59766,8.00243917 107.841797,8.45068359 C107.085934,8.89892802 106.457522,9.51415625 105.956543,10.2963867 C105.455564,11.0786172 105.082032,11.9926706 104.835938,13.0385742 C104.589843,14.0844779 104.466797,15.2050721 104.466797,16.4003906 L104.466797,16.9541016 Z M129.251953,16.3476562 C129.251953,14.2734271 129.550778,12.3530362 130.148438,10.5864258 C130.746097,8.81981539 131.6206,7.28613932 132.771973,5.98535156 C133.923346,4.68456381 135.329582,3.66504275 136.990723,2.92675781 C138.651864,2.18847287 140.554677,1.81933594 142.699219,1.81933594 C144.843761,1.81933594 146.750968,2.18847287 148.420898,2.92675781 C150.090829,3.66504275 151.501459,4.68456381 152.652832,5.98535156 C153.804205,7.28613932 154.678708,8.81981539 155.276367,10.5864258 C155.874026,12.3530362 156.172852,14.2734271 156.172852,16.3476562 L156.172852,16.9013672 C156.172852,18.9931745 155.874026,20.9223544 155.276367,22.6889648 C154.678708,24.4555752 153.808599,25.9892513 152.666016,27.2900391 C151.523432,28.5908268 150.117196,29.6059534 148.447266,30.3354492 C146.777335,31.0649451 144.878917,31.4296875 142.751953,31.4296875 C140.607411,31.4296875 138.695809,31.0649451 137.01709,30.3354492 C135.338371,29.6059534 133.923346,28.5908268 132.771973,27.2900391 C131.6206,25.9892513 130.746097,24.4555752 130.148438,22.6889648 C129.550778,20.9223544 129.251953,18.9931745 129.251953,16.9013672 L129.251953,16.3476562 Z M136.582031,16.9013672 C136.582031,18.0966857 136.696288,19.2172799 136.924805,20.2631836 C137.153321,21.3090873 137.513669,22.2231406 138.005859,23.0053711 C138.498049,23.7876016 139.13525,24.4072243 139.91748,24.8642578 C140.699711,25.3212913 141.644526,25.5498047 142.751953,25.5498047 C143.824224,25.5498047 144.747066,25.3212913 145.520508,24.8642578 C146.293949,24.4072243 146.922361,23.7876016 147.405762,23.0053711 C147.889163,22.2231406 148.245116,21.3090873 148.473633,20.2631836 C148.70215,19.2172799 148.816406,18.0966857 148.816406,16.9013672 L148.816406,16.3476562 C148.816406,15.1874942 148.70215,14.0888724 148.473633,13.0517578 C148.245116,12.0146433 147.889163,11.1005899 147.405762,10.3095703 C146.922361,9.51855073 146.293949,8.89453354 145.520508,8.4375 C144.747066,7.98046646 143.806646,7.75195312 142.699219,7.75195312 C141.60937,7.75195312 140.677738,7.98046646 139.904297,8.4375 C139.130856,8.89453354 138.498049,9.51855073 138.005859,10.3095703 C137.513669,11.1005899 137.153321,12.0146433 136.924805,13.0517578 C136.696288,14.0888724 136.582031,15.1874942 136.582031,16.3476562 L136.582031,16.9013672 Z M170.4375,26.6308594 C170.4375,25.9453091 170.551757,25.3081084 170.780273,24.7192383 C171.00879,24.1303681 171.342771,23.6206076 171.782227,23.1899414 C172.221682,22.7592752 172.757809,22.4165052 173.390625,22.1616211 C174.023441,21.906737 174.735348,21.7792969 175.526367,21.7792969 C176.317387,21.7792969 177.029294,21.906737 177.662109,22.1616211 C178.294925,22.4165052 178.826658,22.7592752 179.257324,23.1899414 C179.68799,23.6206076 180.021971,24.1303681 180.259277,24.7192383 C180.496583,25.3081084 180.615234,25.9453091 180.615234,26.6308594 C180.615234,27.2988315 180.496583,27.9228487 180.259277,28.5029297 C180.021971,29.0830107 179.68799,29.5883768 179.257324,30.019043 C178.826658,30.4497092 178.294925,30.7880847 177.662109,31.0341797 C177.029294,31.2802747 176.317387,31.4033203 175.526367,31.4033203 C174.735348,31.4033203 174.023441,31.2802747 173.390625,31.0341797 C172.757809,30.7880847 172.221682,30.4497092 171.782227,30.019043 C171.342771,29.5883768 171.00879,29.0830107 170.780273,28.5029297 C170.551757,27.9228487 170.4375,27.2988315 170.4375,26.6308594 Z M170.4375,4.8515625 C170.4375,4.1660122 170.551757,3.52881154 170.780273,2.93994141 C171.00879,2.35107127 171.342771,1.84131075 171.782227,1.41064453 C172.221682,0.979978315 172.757809,0.637208306 173.390625,0.382324219 C174.023441,0.127440132 174.735348,0 175.526367,0 C176.317387,0 177.029294,0.127440132 177.662109,0.382324219 C178.294925,0.637208306 178.826658,0.979978315 179.257324,1.41064453 C179.68799,1.84131075 180.021971,2.35107127 180.259277,2.93994141 C180.496583,3.52881154 180.615234,4.1660122 180.615234,4.8515625 C180.615234,5.51953459 180.496583,6.14355179 180.259277,6.72363281 C180.021971,7.30371384 179.68799,7.80907988 179.257324,8.23974609 C178.826658,8.67041231 178.294925,9.00878783 177.662109,9.25488281 C177.029294,9.50097779 176.317387,9.62402344 175.526367,9.62402344 C174.735348,9.62402344 174.023441,9.50097779 173.390625,9.25488281 C172.757809,9.00878783 172.221682,8.67041231 171.782227,8.23974609 C171.342771,7.80907988 171.00879,7.30371384 170.780273,6.72363281 C170.551757,6.14355179 170.4375,5.51953459 170.4375,4.8515625 Z" id="cargo:" fill="#000000"></path>
            <path d="M11.3642578,73.0898438 L8.04199219,76.1748047 L8.04199219,84.8759766 L0.711914062,84.8759766 L0.711914062,44.3759766 L8.04199219,44.3759766 L8.04199219,67.5263672 L10.2568359,64.9951172 L18.140625,56.3466797 L26.9472656,56.3466797 L16.1894531,68.2382812 L28.4501953,84.8759766 L19.4589844,84.8759766 L11.3642578,73.0898438 Z M46.8808594,85.4033203 C44.6835828,85.4033203 42.6884855,85.0429724 40.8955078,84.3222656 C39.1025301,83.6015589 37.5644595,82.6215882 36.28125,81.3823242 C34.9980405,80.1430602 34.0092808,78.6840904 33.3149414,77.0053711 C32.620602,75.3266518 32.2734375,73.5293065 32.2734375,71.6132812 L32.2734375,70.5585938 C32.2734375,68.3788954 32.6162075,66.3881926 33.3017578,64.5864258 C33.9873081,62.784659 34.9453063,61.2334049 36.1757812,59.9326172 C37.4062562,58.6318294 38.8652259,57.6210974 40.5527344,56.9003906 C42.2402428,56.1796839 44.0771385,55.8193359 46.0634766,55.8193359 C48.1201275,55.8193359 49.9526287,56.1577115 51.5610352,56.8344727 C53.1694416,57.5112339 54.5317327,58.4648376 55.6479492,59.6953125 C56.7641657,60.9257874 57.6123018,62.4067296 58.1923828,64.1381836 C58.7724638,65.8696376 59.0625,67.7812395 59.0625,69.8730469 L59.0625,72.984375 L39.7089844,72.984375 C39.8496101,73.9511767 40.1352518,74.8344687 40.565918,75.6342773 C40.9965842,76.434086 41.5458951,77.1240205 42.2138672,77.7041016 C42.8818393,78.2841826 43.6464801,78.7324203 44.5078125,79.0488281 C45.3691449,79.365236 46.3095652,79.5234375 47.3291016,79.5234375 C48.0498083,79.5234375 48.7661097,79.4531257 49.4780273,79.3125 C50.189945,79.1718743 50.8710905,78.9653334 51.5214844,78.6928711 C52.1718783,78.4204088 52.7783175,78.0820333 53.3408203,77.6777344 C53.9033231,77.2734355 54.3955057,76.7988308 54.8173828,76.2539062 L58.4824219,80.2089844 C58.0253883,80.8593783 57.4321326,81.4965789 56.7026367,82.1206055 C55.9731409,82.744632 55.1118214,83.2983374 54.1186523,83.7817383 C53.1254833,84.2651391 52.022467,84.6562485 50.8095703,84.9550781 C49.5966736,85.2539077 48.2871164,85.4033203 46.8808594,85.4033203 Z M46.0107422,61.7519531 C45.1845662,61.7519531 44.4287144,61.8969712 43.7431641,62.1870117 C43.0576138,62.4770522 42.455569,62.8945285 41.9370117,63.4394531 C41.4184544,63.9843777 40.9834002,64.6347618 40.6318359,65.390625 C40.2802717,66.1464882 40.0166024,66.9902297 39.8408203,67.921875 L51.8642578,67.921875 L51.8642578,67.3417969 C51.8291014,66.5683555 51.6796888,65.8388706 51.4160156,65.1533203 C51.1523424,64.46777 50.7744165,63.8745142 50.2822266,63.3735352 C49.7900366,62.8725561 49.1879918,62.4770522 48.4760742,62.1870117 C47.7641566,61.8969712 46.9423875,61.7519531 46.0107422,61.7519531 Z M77.5986328,72.9052734 L78.4423828,75.9638672 L86.0361328,56.3466797 L94.1308594,56.3466797 L79.6552734,89.1474609 C79.3388656,89.8681677 78.9301783,90.6503864 78.4291992,91.4941406 C77.9282202,92.3378948 77.2998085,93.1201136 76.5439453,93.8408203 C75.7880822,94.561527 74.8696343,95.1679663 73.7885742,95.6601562 C72.7075141,96.1523462 71.4287183,96.3984375 69.9521484,96.3984375 C69.6005842,96.3984375 69.2753921,96.385254 68.9765625,96.3588867 C68.6777329,96.3325194 68.3876967,96.2973635 68.1064453,96.253418 C67.8251939,96.2094724 67.5483412,96.1567386 67.2758789,96.0952148 C67.0034166,96.0336911 66.708986,95.9589848 66.3925781,95.8710938 L67.2890625,90.28125 C67.5878921,90.28125 67.9702125,90.2944335 68.4360352,90.3208008 C68.9018578,90.3471681 69.2753892,90.3603516 69.5566406,90.3603516 C70.1367217,90.3603516 70.6508767,90.1845721 71.0991211,89.8330078 C71.5473655,89.4814436 71.9296859,89.0947287 72.2460938,88.6728516 C72.5625016,88.2509745 72.8173818,87.8642596 73.0107422,87.5126953 C73.2041025,87.1611311 73.3359371,86.9853516 73.40625,86.9853516 L75.1728516,83.6630859 L63.0966797,56.3466797 L71.1123047,56.3466797 L77.5986328,72.9052734 Z" id="key" fill="#F15151"></path>
            <path d="M123.240234,65.9707031 L98.296875,65.9707031 L98.296875,59.9589844 L123.240234,59.9589844 L123.240234,65.9707031 Z M123.240234,77.3349609 L98.296875,77.3349609 L98.296875,71.3496094 L123.240234,71.3496094 L123.240234,77.3349609 Z" id="=" fill="#000000"></path>
            <path d="M142.382812,76.4121094 L142.751953,78.46875 L143.121094,76.4912109 L149.396484,56.3466797 L157.042969,56.3466797 L146.206055,84.8759766 L139.324219,84.8759766 L128.43457,56.3466797 L136.081055,56.3466797 L142.382812,76.4121094 Z M180.483398,84.8759766 C180.307616,84.5244123 180.158204,84.1201195 180.035156,83.6630859 C179.912109,83.2060524 179.806641,82.7226588 179.71875,82.2128906 C179.314451,82.6523459 178.848635,83.0654278 178.321289,83.4521484 C177.793943,83.8388691 177.209476,84.1772446 176.567871,84.4672852 C175.926266,84.7573257 175.218754,84.985839 174.445312,85.152832 C173.671871,85.3198251 172.836919,85.4033203 171.94043,85.4033203 C170.481438,85.4033203 169.141119,85.1923849 167.919434,84.7705078 C166.697748,84.3486307 165.647465,83.7597694 164.768555,83.0039062 C163.889644,82.2480431 163.204104,81.3471732 162.711914,80.3012695 C162.219724,79.2553659 161.973633,78.1171937 161.973633,76.8867188 C161.973633,73.8808443 163.094227,71.5561606 165.335449,69.9125977 C167.576671,68.2690348 170.920876,67.4472656 175.368164,67.4472656 L179.455078,67.4472656 L179.455078,65.7597656 C179.455078,64.388665 179.00684,63.3032267 178.110352,62.503418 C177.213863,61.7036093 175.921883,61.3037109 174.234375,61.3037109 C172.740227,61.3037109 171.650394,61.6245085 170.964844,62.2661133 C170.279293,62.9077181 169.936523,63.7646431 169.936523,64.8369141 L162.606445,64.8369141 C162.606445,63.6240174 162.874509,62.4726617 163.410645,61.3828125 C163.94678,60.2929633 164.728999,59.3349651 165.757324,58.5087891 C166.78565,57.6826131 168.042473,57.0278344 169.527832,56.5444336 C171.013191,56.0610327 172.713858,55.8193359 174.629883,55.8193359 C176.352548,55.8193359 177.956536,56.0302713 179.441895,56.4521484 C180.927254,56.8740255 182.214838,57.4980427 183.304688,58.3242188 C184.394537,59.1503948 185.247067,60.1918882 185.862305,61.4487305 C186.477542,62.7055727 186.785156,64.160148 186.785156,65.8125 L186.785156,78.046875 C186.785156,79.5761795 186.881835,80.8417919 187.075195,81.84375 C187.268556,82.8457081 187.549803,83.7070276 187.918945,84.4277344 L187.918945,84.8759766 L180.483398,84.8759766 Z M173.496094,79.734375 C174.234379,79.734375 174.919919,79.6464853 175.552734,79.4707031 C176.18555,79.294921 176.756833,79.0664077 177.266602,78.7851562 C177.77637,78.5039048 178.215818,78.1831073 178.584961,77.8227539 C178.954103,77.4624005 179.24414,77.0976581 179.455078,76.7285156 L179.455078,71.8242188 L175.710938,71.8242188 C174.568354,71.8242188 173.592777,71.9340809 172.78418,72.1538086 C171.975582,72.3735363 171.316409,72.6811504 170.806641,73.0766602 C170.296872,73.4721699 169.918947,73.9467746 169.672852,74.5004883 C169.426757,75.054202 169.303711,75.6562467 169.303711,76.3066406 C169.303711,77.2910205 169.650875,78.1083952 170.345215,78.7587891 C171.039554,79.4091829 172.089837,79.734375 173.496094,79.734375 Z M196.59375,44.3759766 L212.545898,44.3759766 L212.545898,78.9169922 L220.719727,78.9169922 L220.719727,84.8759766 L196.59375,84.8759766 L196.59375,78.9169922 L205.136719,78.9169922 L205.136719,50.3613281 L196.59375,50.3613281 L196.59375,44.3759766 Z" id="val" fill="#66D366"></path>
        </g>
    </g>
</svg>